<svg width="21" height="20" viewBox="0 0 21 20" fill="none" xmlns="http://www.w3.org/2000/svg">
<path fill-rule="evenodd" clip-rule="evenodd" d="M12.0848 11.3769C10.6899 12.7718 8.42847 12.7718 7.03365 11.3769C5.63882 9.98211 5.63882 7.72065 7.03365 6.32582C8.42847 4.931 10.6899 4.931 12.0848 6.32582C13.4796 7.72065 13.4796 9.98211 12.0848 11.3769ZM12.5137 12.7241C10.6043 14.1846 7.86165 14.0417 6.11526 12.2953C4.21323 10.3933 4.21323 7.30948 6.11526 5.40744C8.0173 3.50541 11.1011 3.50541 13.0031 5.40744C14.7494 7.15374 14.8924 9.89622 13.4321 11.8057L16.9064 15.28L15.988 16.1983L12.5137 12.7241Z" fill="#999999"/>
</svg>
